<svg width="620" height="482" viewBox="0 0 620 482" fill="none" xmlns="http://www.w3.org/2000/svg">
<path d="M614.104 456.495L605.986 461.773L581.764 432.974L593.745 425.184L614.104 456.495Z" fill="#A0616A"/>
<path d="M619.896 464.777L594.933 481.009L594.728 480.693C593.053 478.116 592.469 474.979 593.107 471.972C593.744 468.966 595.549 466.335 598.126 464.659L598.127 464.659L600.437 458.235L611.194 456.162L613.373 454.745L619.896 464.777Z" fill="#2F2E41"/>
<path d="M474.987 470.326L465.305 470.325L460.699 432.977L474.989 432.978L474.987 470.326Z" fill="#A0616A"/>
<path d="M475.328 480.426L445.552 480.425V480.049C445.553 476.975 446.774 474.027 448.947 471.854C451.121 469.68 454.068 468.459 457.142 468.459H457.143L462.582 464.333L472.729 468.46H475.329L475.328 480.426Z" fill="#2F2E41"/>
<path d="M575.213 241.863L488.384 243.772L479.777 254.531C479.777 254.531 480.522 250.738 479.859 254.904C479.197 259.07 462.446 342.134 465.612 344.92C468.779 347.706 459.608 366.94 458.934 368.113C458.261 369.286 451.001 427.183 458.934 431.944L461.914 452.153H475.781C475.781 452.153 489.672 436.078 486.876 433.164C484.081 430.25 492.076 420.56 492.382 415.364C492.687 410.168 495.606 386.6 493.345 382.821C491.083 379.042 488.025 364.861 493.763 359.363C499.501 353.866 526.261 286.307 526.261 286.307C526.261 286.307 534.038 365.509 534.019 371.728C533.996 379.816 539.307 375.813 539.307 382.913C539.307 384.348 556.6 421.216 568.223 432.74L592.258 451.228L603.351 442.909V430.891C603.351 430.891 593.071 408.593 589.485 405.007C585.899 401.421 572.657 390.444 572.657 385.423C572.657 380.403 566.424 378.654 570.616 371.997C574.809 365.341 573.374 362.472 571.94 359.603C570.506 356.735 573.226 239.188 573.226 239.188L575.213 241.863Z" fill="#2F2E41"/>
<path d="M539.007 67.5679C553.498 67.5679 565.245 55.8208 565.245 41.33C565.245 26.8392 553.498 15.0922 539.007 15.0922C524.516 15.0922 512.769 26.8392 512.769 41.33C512.769 55.8208 524.516 67.5679 539.007 67.5679Z" fill="#A0616A"/>
<path d="M559.969 251.892L567.354 229.659L580.643 232.106L571.999 255.334C572.524 256.695 572.66 258.175 572.39 259.609C572.12 261.043 571.456 262.373 570.472 263.45C569.487 264.527 568.222 265.308 566.818 265.705C565.415 266.103 563.928 266.1 562.525 265.699C561.122 265.298 559.86 264.513 558.878 263.433C557.897 262.354 557.237 261.021 556.971 259.587C556.706 258.152 556.845 256.672 557.375 255.313C557.904 253.953 558.803 252.768 559.969 251.891L559.969 251.892Z" fill="#A0616A"/>
<path d="M406.794 208.925L424.891 194.047L434.832 203.199L415.14 218.248C414.86 219.68 414.185 221.005 413.193 222.075C412.201 223.144 410.93 223.916 409.523 224.303C408.117 224.69 406.63 224.676 405.23 224.265C403.831 223.853 402.574 223.059 401.601 221.972C400.627 220.885 399.977 219.548 399.722 218.111C399.467 216.675 399.618 215.196 400.158 213.84C400.697 212.485 401.604 211.307 402.777 210.438C403.949 209.57 405.34 209.046 406.794 208.925H406.794Z" fill="#A0616A"/>
<path d="M507.592 36.7399C510.421 37.6181 513.148 38.1358 514.987 35.8155C516.827 33.4952 516.346 30.8421 519.082 29.7235C521.371 28.9562 523.863 29.0716 526.071 30.0471C526.469 30.195 526.857 30.3614 527.236 30.5278C527.448 30.3429 527.661 30.1673 527.892 30.0008C529.631 28.764 531.779 28.2413 533.892 28.5403C532.347 29.2863 531.076 30.499 530.259 32.0069C531.017 32.3859 531.784 32.7649 532.561 33.0884C535.824 34.4233 539.353 34.9796 542.869 34.7133C546.384 34.4469 549.79 33.3652 552.815 31.5539C549.783 39.5409 552.14 42.3881 556.586 49.6818L556.762 50.107C556.318 48.1935 562.133 45.9841 562.133 48.7574C561.877 51.5987 561.256 54.3951 560.284 57.0772C565.988 48.4893 569.353 38.4408 567.143 28.7991C566.672 26.7746 566.459 24.6022 565.174 22.9567C563.889 21.3205 561.523 20.3591 559.655 21.2835C559.424 18.1484 558.347 15.1345 556.54 12.5624C554.732 9.99027 552.262 7.95602 549.39 6.6759C546.519 5.39579 543.355 4.91766 540.233 5.29234C537.112 5.66703 534.151 6.88052 531.664 8.80382C529.353 10.588 527.532 12.9268 525.47 15.0067C523.409 17.0867 520.968 18.9817 518.084 19.4994C516.254 19.823 514.192 19.6288 512.732 20.7844C511.04 22.1248 511.021 24.4821 511.031 26.7469C512.686 26.6997 514.318 27.1471 515.717 28.0318C514.004 28.0749 512.348 28.6572 510.984 29.6958C510.958 29.7121 510.933 29.7306 510.911 29.7513C510.411 33.5599 510.615 34.3642 507.592 36.7399Z" fill="#2F2E41"/>
<path d="M599.905 122.742C599.294 119.815 598.085 117.046 596.355 114.608C594.624 112.171 592.408 110.116 589.847 108.575C589.656 107.595 589.316 106.969 588.795 106.783C581.337 104.132 560.518 91.8842 560.518 91.8842L558.773 77.8787L521.099 76.0685L511.459 91.8842C511.459 91.8842 486.487 94.3943 486.95 103.536C480.902 111.079 453.981 144.784 437.846 167.074C430.134 177.727 424.883 185.776 425.557 187.109C427.828 191.597 424.638 188.569 421.069 189.38C417.5 190.191 419.23 192.299 419.311 195.409C419.392 198.518 407.117 205.06 407.117 205.06C414.607 207.737 423.988 218.741 423.988 218.741C423.988 218.741 433.073 209.171 434.722 208.17C436.371 207.17 437.29 205.71 442.509 203.899C447.727 202.088 445.537 200.709 445.915 196.869C446.294 193.03 447.565 195.869 454.892 192.328C462.219 188.786 456.271 190.138 458.299 185.298C460.327 180.459 459.678 183.108 466.275 179.107C470.24 176.702 474.178 173.17 479.658 167.074C483.296 163.028 487.611 157.855 493.069 151.125C493.106 151.079 493.141 151.032 493.178 150.986C493.544 156.441 493.827 161.899 493.995 167.074C494.472 181.777 494.017 194.175 491.876 197.59C488.873 202.382 483.788 218.419 479.654 232.499C478.854 235.23 478.713 238.111 479.242 240.907C479.772 243.703 480.956 246.333 482.699 248.583C484.442 250.832 486.694 252.636 489.269 253.846C491.844 255.056 494.67 255.639 497.514 255.545C523.155 254.7 560.678 252.744 567.991 248.452C571.969 249.021 575.899 249.885 579.748 251.037C579.748 251.037 582.336 238.097 583.199 236.372C584.061 234.647 584.061 232.921 587.512 228.608C590.963 224.295 588.375 224.295 586.649 220.844C584.924 217.394 587.512 219.119 591.825 212.218C596.138 205.317 591.825 209.63 590.963 204.454C590.1 199.278 590.963 201.866 594.413 194.965C597.272 189.247 598.947 181.744 600.909 167.074C601.315 164.039 601.733 160.706 602.177 157.009C603.642 144.798 601.789 131.758 599.905 122.742Z" fill="#4775B9"/>
<path d="M187.791 460.206C187.216 460.232 186.647 460.081 186.161 459.773C185.674 459.465 185.294 459.015 185.072 458.484C184.85 457.953 184.797 457.367 184.919 456.804C185.041 456.242 185.334 455.731 185.757 455.34L185.949 454.575C185.924 454.514 185.898 454.453 185.872 454.392C185.293 453.023 184.322 451.857 183.082 451.038C181.842 450.22 180.388 449.786 178.902 449.792C177.416 449.797 175.965 450.242 174.731 451.069C173.497 451.897 172.535 453.071 171.966 454.443C169.691 459.921 166.795 465.409 166.082 471.201C165.768 473.761 165.901 476.357 166.474 478.871C161.132 467.218 158.358 454.552 158.34 441.733C158.339 438.516 158.517 435.301 158.875 432.104C159.171 429.484 159.581 426.881 160.106 424.298C162.969 410.28 169.117 397.141 178.044 385.961C182.364 383.603 185.859 379.978 188.056 375.573C188.851 373.99 189.414 372.3 189.726 370.555C189.238 370.619 187.888 363.196 188.255 362.741C187.576 361.71 186.36 361.198 185.619 360.192C181.929 355.19 176.846 356.063 174.192 362.861C168.524 365.722 168.469 370.467 171.947 375.03C174.16 377.933 174.464 381.862 176.406 384.97C176.206 385.226 175.998 385.473 175.798 385.729C172.147 390.424 168.964 395.466 166.296 400.783C166.945 394.827 166.171 388.802 164.037 383.204C161.874 377.987 157.82 373.593 154.251 369.083C149.963 363.665 141.17 366.029 140.415 372.897C140.408 372.963 140.4 373.03 140.394 373.096C140.924 373.395 141.443 373.713 141.951 374.049C142.589 374.475 143.083 375.084 143.369 375.796C143.655 376.508 143.719 377.29 143.553 378.039C143.387 378.788 142.999 379.469 142.439 379.994C141.879 380.519 141.174 380.862 140.415 380.979L140.338 380.991C140.527 382.902 140.86 384.796 141.336 386.656C136.757 404.366 146.644 410.816 160.761 411.106C161.072 411.266 161.376 411.426 161.688 411.578C159.007 419.174 157.326 427.087 156.686 435.117C156.323 439.854 156.345 444.613 156.75 449.348L156.726 449.18C155.703 443.916 152.895 439.166 148.775 435.732C142.657 430.706 134.013 428.855 127.413 424.816C126.711 424.365 125.896 424.125 125.062 424.123C124.228 424.121 123.412 424.357 122.708 424.804C122.004 425.251 121.443 425.89 121.091 426.645C120.738 427.401 120.609 428.241 120.719 429.068C120.727 429.126 120.736 429.185 120.746 429.244C121.729 429.645 122.687 430.106 123.614 430.626C124.144 430.925 124.663 431.243 125.171 431.579C125.809 432.005 126.303 432.614 126.589 433.326C126.875 434.038 126.939 434.82 126.773 435.569C126.607 436.318 126.219 436.999 125.659 437.524C125.099 438.049 124.394 438.392 123.636 438.509L123.558 438.521C123.502 438.529 123.454 438.537 123.398 438.545C125.079 442.559 127.439 446.254 130.374 449.467C133.237 464.927 145.536 466.394 158.691 461.892H158.699C160.143 468.165 162.234 474.27 164.94 480.11H187.233C187.313 479.862 187.384 479.607 187.456 479.359C185.393 479.489 183.321 479.365 181.288 478.991C182.942 476.962 184.596 474.916 186.25 472.887C186.287 472.849 186.321 472.809 186.354 472.767C187.193 471.728 188.04 470.697 188.879 469.659L188.879 469.657C188.924 466.473 188.558 463.297 187.792 460.206L187.791 460.206Z" fill="#F2F2F2"/>
<path d="M16.322 426.488L22.473 432.989L51.034 411.829L41.956 402.234L16.322 426.488Z" fill="#C78F8F"/>
<path d="M26.4015 430.084L19.438 423.542L17.728 421.94L0 436.113L4.6116 440.987L10.0398 437.506L7.54608 444.089L19.7728 457.012C20.3587 457.632 21.1273 458.048 21.9665 458.2C22.8057 458.352 23.6715 458.232 24.4376 457.858C25.2037 457.483 25.83 456.873 26.225 456.117C26.6201 455.361 26.7632 454.499 26.6335 453.656L23.9947 436.584L28.6446 432.187L26.4015 430.084Z" fill="#2F2E41"/>
<path d="M151.504 189.786L149.554 211.076C149.554 211.076 146.15 227.116 148.507 225.816C150.864 224.516 146.638 230.368 147.751 235.442C148.864 240.516 138.244 278.356 143.054 274.436C147.864 270.516 140.274 297.596 135.474 310.956C134.004 315.086 132.494 319.266 130.974 323.416C130.674 324.256 130.374 325.086 130.064 325.926C128.094 331.326 126.124 336.646 124.234 341.666C123.964 342.366 123.704 343.066 123.444 343.756C123.434 343.776 123.434 343.796 123.424 343.796C117.204 360.166 111.874 373.046 109.744 375.176C108.634 376.286 91.0241 389.006 73.2741 401.746C54.6443 415.116 35.864 428.516 35.864 428.516L18.324 410.116C18.324 410.116 18.7439 409.996 19.534 409.757C20.994 409.336 23.6941 408.546 27.2342 407.496C41.9939 403.146 23.2439 396.376 36.6443 391.536C40.4241 390.176 42.9441 389.116 43.5139 388.556C46.844 385.306 51.3142 377.556 53.4241 380.806C55.534 384.056 65.1043 359.906 67.864 357.516C69.344 356.226 74.1741 350.196 78.3142 344.896C81.8738 340.336 84.9339 336.306 84.9339 336.306C84.9339 336.306 84.9939 334.146 85.0838 330.706C85.2141 325.616 85.4041 317.706 85.6043 309.786C85.594 309.776 85.594 309.776 85.6043 309.776C85.6741 306.796 85.7439 303.816 85.8143 300.986C85.8641 298.796 85.9139 296.686 85.9642 294.736C86.0941 288.896 86.1839 284.476 86.1839 283.376C86.1839 279.766 86.1839 282.576 89.034 280.396C89.4596 280.062 89.8638 279.701 90.244 279.316C90.8534 278.768 91.4154 278.169 91.9242 277.526C92.1342 277.076 90.8241 277.686 89.1239 277.346C88.2033 277.162 87.3518 276.725 86.6639 276.086C83.0838 272.866 86.9442 262.967 86.9442 262.967C78.804 246.686 79.3944 233.336 83.2039 223.046C86.0528 215.662 90.5745 209.039 96.4139 203.697C98.6364 201.579 101.058 199.68 103.644 198.026L103.894 196.676L106.644 181.786C108.107 180.983 109.628 180.291 111.194 179.716C116.079 177.964 121.32 177.442 126.454 178.196C131.557 178.935 136.497 180.534 141.064 182.926C144.798 184.802 148.301 187.104 151.504 189.786Z" fill="#2F2E41"/>
<path d="M74.7 459.658L83.6109 460.487L91.1199 425.743L77.9669 424.52L74.7 459.658Z" fill="#C78F8F"/>
<path d="M100.364 473.276L87.1237 462.186L87.7238 455.806L84.6443 455.706L75.1042 455.396H75.094L72.7542 455.316L68.7839 477.656L75.4739 478.276L77.2439 472.076L79.7141 478.677L83.2541 479.007L97.424 480.326C97.5442 480.336 97.674 480.346 97.7942 480.346C98.3575 480.347 98.9145 480.228 99.4283 479.997C99.9421 479.766 100.401 479.428 100.774 479.007C101.354 478.372 101.709 477.563 101.784 476.706C101.842 476.062 101.744 475.414 101.497 474.816C101.249 474.219 100.861 473.69 100.364 473.276Z" fill="#2F2E41"/>
<path d="M124.234 341.666C120.844 360.116 106.494 403.376 97.8142 428.697C93.864 440.266 91.1042 448.096 91.1042 448.096L86.6042 446.677H86.5939L78.9841 444.276L76.214 443.396H76.2038L72.8439 442.326C72.8439 442.326 73.2341 421.666 73.2741 401.746C73.3039 393.396 73.2638 385.166 73.1042 378.646C72.924 371.536 72.6139 366.447 72.1042 365.436C69.9938 361.296 73.5241 360.856 77.2541 359.816C80.9938 358.766 78.0739 357.186 76.6237 353.826C75.6442 351.586 77.5739 348.596 78.944 346.896C79.322 346.418 79.726 345.96 80.154 345.526C80.154 345.526 79.4939 345.296 78.3142 344.896C81.8737 340.336 84.9338 336.306 84.9338 336.306C84.9338 336.306 84.9939 334.146 85.0837 330.706C85.2141 325.616 85.404 317.706 85.6042 309.786C85.594 309.776 85.594 309.776 85.6042 309.776C85.674 306.796 85.7439 303.816 85.8142 300.986C91.534 305.376 97.094 309.676 102.134 313.656C102.14 313.661 102.145 313.667 102.149 313.674C102.152 313.681 102.154 313.689 102.154 313.696C114.264 323.266 123.354 330.946 124.634 333.386C125.214 334.486 125.014 337.427 124.234 341.666Z" fill="#2F2E41"/>
<path d="M101.595 153.798L103.469 171.18L102.367 193.973L152.852 187.975L157.595 153.798L151.551 153.858L101.595 153.798Z" fill="#FFB6B6"/>
<path d="M144.538 97.6558L125.538 82.6558L115.564 82.0759L100.765 91.5567L97.1413 110.044L88.5709 130.862L101.141 187.044C101.141 187.044 102.32 191.076 99.2308 191.56C96.1413 192.044 96.5117 197.987 96.5117 197.987C96.5117 197.987 97.1409 203.137 94.1409 203.591C91.1409 204.044 83.1413 204.044 90.1413 213.044C97.1413 222.044 152.507 188.005 152.507 188.005L160.548 145.81C160.548 145.81 176.144 124.864 159.349 112.868L144.538 97.6558Z" fill="#4775B9"/>
<path d="M61.594 225.214C60.7568 224.17 60.1589 222.954 59.8423 221.653C59.5257 220.353 59.4981 218.998 59.7616 217.686C60.0251 216.373 60.5731 215.134 61.3672 214.056C62.1612 212.978 63.1819 212.088 64.3574 211.447L88.2564 131.242L103.2 138.766L77.1738 215.641C78.1192 217.687 78.2813 220.009 77.6292 222.167C76.9772 224.324 75.5563 226.168 73.6359 227.348C71.7155 228.528 69.4289 228.962 67.2095 228.569C64.9901 228.176 62.9921 226.982 61.594 225.214L61.594 225.214Z" fill="#C78F8F"/>
<path d="M104.197 90.8146C104.197 90.8146 99.9253 88.5443 97.0033 98.3686C94.6641 106.234 75.6827 153.082 75.4406 164.472C73.8785 164.803 72.4709 165.644 71.4396 166.863C70.4083 168.082 69.8119 169.61 69.7444 171.205L93.2132 174.35C97.3142 170.891 98.39 166.219 96.8033 164.833L101.899 150.916L123.157 106.636L107.314 92.4008L104.197 90.8146Z" fill="#4775B9"/>
<path d="M229.598 198.851C229.901 197.547 229.915 196.192 229.638 194.883C229.361 193.573 228.8 192.34 227.995 191.27C227.189 190.201 226.159 189.321 224.977 188.692C223.795 188.064 222.49 187.702 221.153 187.633L166.329 125.019L154.699 138.896L211.411 196.957C211.443 199.211 212.301 201.374 213.822 203.038C215.343 204.701 217.421 205.749 219.663 205.982C221.905 206.216 224.155 205.619 225.986 204.305C227.817 202.99 229.102 201.05 229.598 198.851L229.598 198.851Z" fill="#C78F8F"/>
<path d="M133.065 96.0913C133.065 96.0913 135.935 92.1969 142.818 99.7915C148.328 105.871 185.702 139.904 190.846 150.069C192.397 149.692 194.03 149.842 195.487 150.495C196.944 151.149 198.143 152.268 198.893 153.677L179.093 166.662C173.899 165.317 170.909 161.57 171.74 159.633L161.127 149.288L122.811 118.556L130.94 98.8695L133.065 96.0913Z" fill="#4775B9"/>
<path d="M397.06 227.117C395.478 226.57 394.171 225.428 393.418 223.932C392.665 222.437 392.526 220.707 393.029 219.11C393.136 218.787 393.27 218.473 393.429 218.172L378.288 201.633L383.977 190.997L402.269 215.896C403.466 216.653 404.378 217.784 404.864 219.114C405.35 220.444 405.382 221.897 404.955 223.246C404.705 224.012 404.307 224.721 403.783 225.333C403.258 225.944 402.619 226.447 401.901 226.811C401.182 227.176 400.399 227.395 399.596 227.457C398.793 227.519 397.985 227.422 397.22 227.172C397.166 227.154 397.113 227.136 397.06 227.117Z" fill="#FFB6B6"/>
<path d="M299.986 101.494C299.486 103.829 299.432 106.238 299.829 108.594C299.934 109.26 300.078 109.92 300.262 110.569C300.94 112.995 301.584 115.231 302.206 117.248C302.571 118.501 302.947 119.682 303.306 120.778C305.378 127.176 306.996 130.798 308.143 131.56C308.699 131.933 309.258 132.274 309.799 132.607C312.575 134.306 314.586 135.537 313.241 138.671C313.045 139.119 312.813 139.55 312.547 139.96C312.101 140.648 311.609 141.305 311.073 141.926C310.767 142.277 310.485 142.648 310.229 143.036C309.894 143.532 309.748 143.95 309.928 144.328C310.156 144.793 310.787 145.025 312.141 145.09C312.356 145.1 312.603 145.113 312.867 145.112C312.952 145.118 313.041 145.114 313.14 145.115C313.314 145.117 313.512 145.119 313.712 145.111C315.385 145.079 317.544 145.96 319.855 147.305C326.673 151.276 334.709 159.27 334.806 159.369L384.975 210.668L385.953 210.013L388.275 208.453L389.078 207.917L389.994 207.301L393.984 204.631L396 203.283L383.06 179.525L381.651 176.942L380.444 174.714L355.74 129.346L345.927 113.748L343.737 110.273L334.406 95.4544C333.088 93.3576 331.37 91.5409 329.351 90.1079C327.331 88.6749 325.049 87.6538 322.634 87.1028C320.22 86.5518 317.721 86.4818 315.279 86.8967C312.838 87.3116 310.502 88.2033 308.405 89.5209C308.264 89.6098 308.123 89.7005 307.984 89.7931C303.902 92.5086 301.034 96.7041 299.986 101.494Z" fill="#4775B9"/>
<path d="M303.316 459.976L294.125 459.898L290.056 423.619L303.622 423.734L303.316 459.976Z" fill="#FFB6B6"/>
<path d="M305.754 455.736L303.354 455.576L293.564 454.907L290.414 454.697L290.354 461.266L275.674 471.226C274.949 471.719 274.401 472.43 274.109 473.257C273.817 474.083 273.796 474.981 274.051 475.82C274.306 476.659 274.822 477.394 275.524 477.919C276.226 478.443 277.078 478.73 277.954 478.736L296.224 478.887L299.424 472.406L300.594 478.927L307.494 478.986L305.754 455.736Z" fill="#2F2E41"/>
<path d="M400.087 453.26L391.302 455.961L376.472 422.603L389.439 418.617L400.087 453.26Z" fill="#FFB6B6"/>
<path d="M401.134 448.486L398.794 449.056L389.265 451.366L386.194 452.116L388.124 458.406L377.134 472.326C376.591 473.014 376.282 473.858 376.252 474.733C376.222 475.609 376.473 476.471 376.967 477.195C377.462 477.918 378.175 478.465 379.002 478.754C379.829 479.044 380.726 479.063 381.564 478.806L399.034 473.436L400.124 466.286L403.214 472.146L409.805 470.116L401.134 448.486Z" fill="#2F2E41"/>
<path d="M284.828 154.922L267.288 205.896L266.709 209.975C262.29 214.172 267.841 215.554 265.76 216.661C263.678 217.767 262.278 220.869 265.083 221.424C267.889 221.978 276.934 420.797 288.864 428.516C300.795 436.236 308.055 441.82 305.864 430.516C304.981 425.962 306.23 401.544 308.036 374.009C308.241 370.888 311.474 367.585 308.669 364.551C305.864 361.516 309.015 359.52 309.191 357.002C311.707 321.045 314.613 285.546 314.613 285.546C314.613 285.546 333.207 349.403 338.036 344.46C342.864 339.516 340.953 351.687 342.428 355.324C343.661 358.364 338.401 364.333 346.132 364.425C353.864 364.516 372.022 426.587 373.864 426.516C377.514 426.377 387.772 426.77 393.864 425.516C396.873 424.897 383.519 377.904 372.368 337.324C371.479 334.087 366.639 334.012 369.752 327.764C372.864 321.516 357.377 281.09 358.706 279.22C362.234 274.258 363.577 272.101 360.098 271.776C356.619 271.45 355.591 273.359 355.404 268.545C355.216 263.731 354.615 251.86 354.615 251.86C354.615 251.86 352.095 204.911 334.449 178.972L332.944 163.56L284.828 154.922Z" fill="#2F2E41"/>
<path d="M328.649 57.6005L305.388 60.9125L303.985 77.7555L292.506 95.7107C292.506 95.7107 266.992 113.666 284.786 142.029C278.015 166.462 271.282 189.894 264.864 205.516C259.864 236.516 304.657 239.488 355.864 228.516C355.864 228.516 355.158 215.261 350.511 208.889C345.864 202.516 348.394 201.125 348.394 201.125L345.147 189.22C346.984 172.011 340.78 170.467 337.864 162.516L346.717 80.0219L328.649 57.6005Z" fill="#4775B9"/>
<path d="M216.985 201.792C217.231 200.136 218.114 198.642 219.446 197.627C220.777 196.612 222.453 196.156 224.115 196.358C224.452 196.404 224.785 196.478 225.11 196.579L238.583 178.655L250.084 182.292L228.972 204.85C228.448 206.165 227.504 207.27 226.286 207.992C225.069 208.714 223.646 209.013 222.241 208.841C220.628 208.629 219.166 207.785 218.175 206.494C217.185 205.203 216.748 203.572 216.96 201.959C216.968 201.903 216.976 201.848 216.985 201.792Z" fill="#FFB6B6"/>
<path d="M336.664 90.1966C336.334 89.7864 335.974 89.3866 335.594 88.9964C332.953 86.2742 329.551 84.413 325.834 83.6565C322.118 82.9 318.259 83.2834 314.764 84.7566C314.424 84.8962 314.084 85.0564 313.754 85.2166C301.804 91.0862 295.354 94.9964 294.574 96.8265C294.304 97.4466 294.074 98.0564 293.844 98.6463C293.624 99.2263 293.414 99.7761 293.194 100.276C292.274 102.416 291.214 103.746 288.514 103.146C287.619 102.927 286.755 102.595 285.944 102.157C285.574 101.976 285.234 101.786 284.914 101.606C283.754 100.967 282.914 100.507 282.344 100.927C281.794 101.336 281.774 102.376 282.274 104.786C282.44 105.792 282.412 106.82 282.194 107.816C281.533 110.721 280.497 113.528 279.114 116.166C277.041 120.302 274.71 124.303 272.134 128.146L248.344 162.066L246.734 164.356L244.974 166.866L230.934 186.886L231.764 187.736L235.244 191.286L236.014 192.076L236.714 192.796L238.524 194.646L240.224 196.376L278.154 165.476L282.384 162.026L289.964 155.846L305.494 143.197L334.884 115.996C336.739 114.293 338.231 112.233 339.271 109.939C340.31 107.645 340.876 105.164 340.934 102.646C340.934 102.476 340.944 102.316 340.944 102.146C340.955 97.7857 339.441 93.5585 336.664 90.1966Z" fill="#4775B9"/>
<path d="M314.684 56.9874C329.039 56.9874 340.676 45.3505 340.676 30.9956C340.676 16.6407 329.039 5.00378 314.684 5.00378C300.33 5.00378 288.693 16.6407 288.693 30.9956C288.693 45.3505 300.33 56.9874 314.684 56.9874Z" fill="#FFB6B6"/>
<path d="M349.129 67.0369C352.618 72.0294 354.951 77.7357 355.96 83.742C353.149 85.5405 349.877 86.4851 346.539 86.4614C346.426 86.0244 346.313 85.5873 346.183 85.1503C345.216 81.766 343.778 78.5346 341.91 75.5514C342.166 78.7683 341.73 82.0027 340.631 85.037C338.868 84.2355 336.978 83.748 335.047 83.5963C333.474 83.5962 331.922 83.962 330.514 84.6646C328.879 79.242 327.374 74.2564 326.306 70.679C326.273 79.6467 313.129 87.465 298.788 86.332C298.27 86.0082 303.466 71.2618 302.964 70.9219C301.815 70.1611 300.698 69.3356 299.581 68.5262C304.275 61.2743 309.374 53.5046 308.5 52.3392C308.565 53.7799 303.417 60.7079 297.817 67.2474C294.709 64.9651 312.369 27.832 303.644 24.8213C303.498 26.1324 301.572 26.1324 299.225 25.8573C298.606 23.6939 297.685 21.6286 296.489 19.7223C296.645 21.6426 296.413 23.5746 295.809 25.404C293.492 25.4046 291.18 25.6488 288.914 26.1324C288.389 25.3072 287.811 24.5177 287.182 23.7691C287.244 24.6814 287.217 25.5976 287.101 26.5047C284.786 27.0065 282.876 27.5892 282.601 28.0587C280.788 27.3949 283.88 24.4004 282.747 22.8464C279.865 18.9616 284.139 13.2961 286.842 9.2817C292.394 1.05875 304.583 -1.79018 313.21 3.14683C313.599 1.80328 315.59 0.913029 318.148 0.314109C319.231 0.0751913 320.341 -0.0281318 321.45 0.00653752C332.457 0.200768 347.737 9.28168 348.336 20.2727C348.385 21.3734 348.466 22.5712 348.547 23.85C349.324 36.1522 348.369 47.4993 356.77 56.4993C359.813 59.7528 359.845 75.1629 358.68 83.0946C355.653 79.9057 353.5 67.5064 349.129 67.0369Z" fill="#2F2E41"/>
<path d="M98.2943 41.8032C96.0112 47.4893 89.5702 58.6713 88.6978 64.7713L89.0904 64.3852C89.8395 65.6648 90.6907 66.8818 91.6357 68.0244C93.3295 66.2455 95.3752 64.8389 97.6425 63.8941C96.4044 66.4345 95.6874 69.1971 95.5337 72.0189C97.9644 79.6383 109.202 76.2452 115.786 75.4132C122.361 82.934 131.108 84.8965 142.563 80.5727C145.766 80.9026 149.353 81.1027 151.598 79.2097C153.843 77.3167 152.506 73.811 153.714 71.1595C162.317 52.2725 154.377 45.4582 147.631 36.8942C146.147 35.0095 146.153 32.1971 144.347 30.399C141.84 27.9065 137.998 27.1398 134.456 26.5257C135.376 26.5742 136.293 26.385 137.119 25.9763C137.945 25.5677 138.652 24.9533 139.171 24.1923C139.627 23.4257 139.862 22.548 139.851 21.6562C139.84 20.7644 139.582 19.893 139.107 19.1381C137.84 17.0379 135.208 15.8166 132.668 15.5115C130.166 15.3416 127.653 15.5576 125.217 16.1521C123.638 16.3596 122.11 16.8481 120.704 17.5944C120.041 17.9483 119.501 18.4963 119.158 19.1652C118.814 19.834 118.683 20.5918 118.782 21.3372C118.993 22.0255 119.357 22.6572 119.847 23.1851C120.337 23.713 120.94 24.1236 121.61 24.3861C122.633 24.8184 123.708 25.1127 124.808 25.2615C119.755 24.6058 114.623 25.5042 110.093 27.8372C104.416 30.8652 100.585 36.1201 98.2943 41.8032Z" fill="#2F2E41"/>
<path d="M129.033 73.6817C140.241 73.6817 149.326 64.5963 149.326 53.3889C149.326 42.1815 140.241 33.0961 129.033 33.0961C117.826 33.0961 108.741 42.1815 108.741 53.3889C108.741 64.5963 117.826 73.6817 129.033 73.6817Z" fill="#C78F8F"/>
<path d="M109.507 42.5083C110.683 46.0643 114.046 47.2101 117.153 47.9248C118.133 48.1532 119.119 48.366 120.114 48.5554C120.481 48.0964 120.872 47.6466 121.28 47.2214C122.974 45.4425 125.019 44.0359 127.287 43.0912C126.306 45.0978 125.654 47.249 125.357 49.4625C127.235 49.7351 129.125 49.9578 131.024 50.1307C132.631 50.4728 134.308 50.1844 135.709 49.325C137.11 48.4657 138.126 47.1011 138.55 45.5134C140.279 48.3412 142.324 51.0044 145.12 52.1278C146.719 52.7023 148.46 52.7495 150.088 52.2626C151.715 51.7756 153.144 50.78 154.165 49.4217C155.777 47.2059 156.895 44.67 157.443 41.9851C158.237 38.8361 158.678 35.2086 157.12 33.2107C155.871 31.5937 153.718 31.5647 151.732 31.7081C147.347 32.0445 143.008 32.831 138.784 34.0554L138.427 34.8594C139.153 30.4986 137.578 26.3029 134.665 24.8108C132.7 23.8131 130.336 23.9804 128.039 24.1827C125.088 24.3144 122.173 24.8782 119.386 25.8561C116.189 27.0859 113.45 29.2734 111.544 32.1195C109.505 35.2152 108.492 39.4373 109.507 42.5083Z" fill="#2F2E41"/>
<path d="M138.436 23.5416C138.236 23.4825 138.754 23.5584 138.574 23.5633C138.664 23.5581 138.753 23.5457 138.84 23.5261C138.855 23.5231 139.057 23.4587 138.923 23.506C139.224 23.4159 139.493 23.2405 139.697 23.0009C140.173 22.4114 140.547 21.7458 140.803 21.0321C141.125 20.0889 141.644 19.2246 142.324 18.4959C142.517 18.302 142.753 18.1564 143.013 18.0709C143.273 17.9853 143.549 17.9622 143.82 18.0035C144.09 18.0448 144.347 18.1493 144.57 18.3085C144.792 18.4677 144.974 18.6771 145.1 18.9197C145.357 19.8558 145.269 20.8529 144.853 21.7297C144.562 22.6218 144.129 23.4612 143.571 24.2155C142.635 25.4489 141.361 26.3836 139.904 26.9056C138.217 27.5182 136.378 27.5708 134.659 27.0555C134.432 26.9612 134.237 26.803 134.098 26.6C133.959 26.3971 133.883 26.1581 133.877 25.9123C133.872 25.6665 133.938 25.4244 134.068 25.2156C134.198 25.0067 134.385 24.8401 134.608 24.7361L137.475 23.5626C137.626 23.4955 137.789 23.4589 137.954 23.4547C138.118 23.4505 138.283 23.4789 138.437 23.5383C138.591 23.5976 138.731 23.6868 138.851 23.8006C138.97 23.9144 139.066 24.0506 139.133 24.2015C139.2 24.3524 139.236 24.515 139.24 24.68C139.244 24.845 139.216 25.0091 139.156 25.163C139.097 25.3169 139.007 25.4576 138.893 25.577C138.779 25.6963 138.643 25.792 138.492 25.8586L138.487 25.861L135.62 27.0345L135.569 24.7151C135.927 24.8184 136.295 24.8813 136.666 24.9028C137.063 24.9425 137.463 24.9256 137.855 24.8527C138.23 24.8035 138.599 24.7135 138.955 24.5845C139.183 24.5012 139.406 24.4065 139.625 24.3006C139.704 24.2621 139.783 24.2221 139.86 24.1807C139.855 24.1837 140.188 23.9894 140.042 24.0807C140.413 23.8437 140.761 23.5727 141.081 23.2712C141.194 23.1643 141.299 23.0483 141.393 22.9244C141.556 22.7237 141.708 22.5137 141.846 22.2954C142.129 21.833 142.353 21.3373 142.512 20.8197C142.585 20.6021 142.647 20.3809 142.697 20.157C142.711 20.034 142.733 19.9122 142.763 19.7923C142.87 19.5066 142.743 19.9591 142.865 20.0829L143.394 20.4723C143.493 20.5019 143.598 20.5088 143.7 20.4924C143.802 20.476 143.9 20.4368 143.985 20.3778C144.047 20.2897 144.034 20.3043 143.944 20.4216C143.839 20.5597 143.743 20.7043 143.657 20.8545C143.467 21.2082 143.296 21.5712 143.143 21.9423C142.828 22.7313 142.429 23.4845 141.954 24.1889C141.488 24.9014 140.809 25.4486 140.014 25.7526C139.219 26.0567 138.348 26.1019 137.526 25.882C137.217 25.7591 136.969 25.5199 136.836 25.2158C136.702 24.9118 136.693 24.5673 136.811 24.2568C136.937 23.9508 137.176 23.7054 137.479 23.5721C137.782 23.4388 138.125 23.4279 138.436 23.5416Z" fill="#2F2E41"/>
</svg>
